<svg width="16" height="16" viewBox="0 0 16 16" fill="none" xmlns="http://www.w3.org/2000/svg">
<path d="M14.6693 5.73606V11.1641C14.6693 11.7175 14.4576 12.2499 14.0775 12.6522C13.6974 13.0545 13.1778 13.2961 12.6253 13.3274L12.5026 13.3307H3.5026C2.94918 13.3308 2.41672 13.119 2.01445 12.7389C1.61218 12.3589 1.3706 11.8393 1.33927 11.2867L1.33594 11.1641V5.73606L7.7706 9.10673C7.84219 9.14423 7.92179 9.16381 8.0026 9.16381C8.08341 9.16381 8.16302 9.14423 8.2346 9.10673L14.6693 5.73606ZM3.5026 2.66406H12.5026C13.0397 2.664 13.5576 2.86339 13.956 3.22357C14.3543 3.58376 14.6047 4.07905 14.6586 4.6134L8.0026 8.10006L1.3466 4.6134C1.39829 4.10027 1.6313 3.62241 2.00377 3.2657C2.37624 2.909 2.86372 2.69685 3.3786 2.6674L3.5026 2.66406Z" fill="#007777"/>
</svg>
