<svg width="16" height="16" viewBox="0 0 16 16" fill="none" xmlns="http://www.w3.org/2000/svg">
<path d="M14.3307 5.87426V11.5513C14.3307 12.0794 14.1209 12.5859 13.7474 12.9594C13.374 13.3328 12.8675 13.5426 12.3393 13.5426H3.57731C3.04916 13.5426 2.54265 13.3328 2.1692 12.9594C1.79574 12.5859 1.58594 12.0794 1.58594 11.5513V5.87426L7.756 9.50492C7.8173 9.54107 7.88716 9.56014 7.95832 9.56014C8.02948 9.56014 8.09935 9.54107 8.16064 9.50492L14.3307 5.87426ZM12.3393 3.1875C12.8293 3.18742 13.3022 3.368 13.6673 3.69469C14.0325 4.02138 14.2645 4.47125 14.3188 4.95823L7.95832 8.69961L1.59789 4.95823C1.65218 4.47125 1.8841 4.02138 2.2493 3.69469C2.61449 3.368 3.08731 3.18742 3.57731 3.1875H12.3393Z" fill="black"/>
</svg>
