<svg width="25" height="25" viewBox="0 0 25 25" fill="none" xmlns="http://www.w3.org/2000/svg">
<path d="M8.97489 22.0151H14.979C19.9824 22.0151 21.9838 20.0137 21.9838 15.0103V9.00617C21.9838 4.00274 19.9824 2.00137 14.979 2.00137H8.97489C3.97146 2.00137 1.97009 4.00274 1.97009 9.00617V15.0103C1.97009 20.0137 3.97146 22.0151 8.97489 22.0151Z" stroke="#4D5A68" stroke-width="1.50103" stroke-linecap="round" stroke-linejoin="round"/>
<path d="M1.97009 12.7088L7.97421 12.6888C8.72472 12.6888 9.5653 13.2592 9.84549 13.9597L10.9863 16.8416C11.2464 17.4921 11.6567 17.4921 11.9169 16.8416L14.2085 11.0277C14.4286 10.4673 14.8389 10.4473 15.1191 10.9776L16.1598 12.949C16.47 13.5394 17.2706 14.0197 17.931 14.0197H21.9938" stroke="#4D5A68" stroke-width="1.50103" stroke-linecap="round" stroke-linejoin="round"/>
</svg>
