<svg width="109" height="109" viewBox="0 0 109 109" fill="none" xmlns="http://www.w3.org/2000/svg">
<path d="M71.5344 54.5C67.1574 54.5 62.9251 52.5457 59.6125 48.9989C56.3915 45.5394 54.4244 40.9261 54.0774 36.0126C53.707 30.7712 55.3058 25.9514 58.5779 22.4387C61.85 18.926 66.425 17.0312 71.5344 17.0312C76.6076 17.0312 81.1954 18.96 84.4569 22.4642C87.7503 26.0025 89.3534 30.8138 88.9829 36.0104C88.6274 40.9304 86.6624 45.5416 83.4478 48.9968C80.1437 52.5457 75.9136 54.5 71.5344 54.5ZM99.5998 91.9688H43.4712C42.5688 91.9736 41.6773 91.7713 40.8653 91.3775C40.0533 90.9837 39.3425 90.4089 38.7876 89.6972C38.1989 88.9257 37.7924 88.0311 37.5985 87.0803C37.4046 86.1295 37.4283 85.1471 37.6678 84.2068C39.4603 77.0089 43.9012 71.0395 50.5093 66.9456C56.3745 63.3137 63.8406 61.3125 71.5344 61.3125C79.3794 61.3125 86.6497 63.2285 92.5489 66.8583C99.1719 70.9309 103.619 76.9344 105.403 84.2195C105.64 85.1606 105.661 86.1429 105.465 87.0933C105.269 88.0436 104.86 88.9373 104.271 89.7079C103.716 90.4162 103.007 90.9882 102.197 91.3801C101.388 91.772 100.499 91.9734 99.5998 91.9688Z" fill="white"/>
<path d="M17.0505 38.1692C17.6615 46.7295 24.2484 53.6953 31.74 53.6953C39.2188 53.6953 45.8035 46.7317 46.4145 38.1735C46.7339 33.8241 45.3714 29.7771 42.5825 26.7796C39.8298 23.8182 35.9978 22.1875 31.74 22.1875C27.4822 22.1875 23.6203 23.8097 20.8826 26.754C18.115 29.7281 16.7482 33.7837 17.0505 38.1692Z" fill="#4D94CD"/>
<path d="M31.7421 57.6444C37.1133 57.6444 41.9736 58.5599 45.7184 60.3907C46.1548 60.6036 46.538 60.8101 46.8723 61.006C47.1167 61.1494 47.3215 61.3515 47.4681 61.594C47.6147 61.8366 47.6984 62.1119 47.7117 62.3949C47.725 62.678 47.6675 62.9599 47.5443 63.2152C47.4212 63.4704 47.2363 63.6909 47.0064 63.8566C47.0064 63.8566 41.9048 68.405 39.5 72C37.2175 75.4121 35 81.5 35 81.5C35 81.5 34.6793 81.9631 34.6332 82.1013C34.5 82.5 34.3551 82.8487 34.0489 83.1043C33.7428 83.3599 33.3566 83.4999 32.9577 83.5H9.32687C8.50255 83.5037 7.68835 83.3184 6.94689 82.9582C6.20543 82.598 5.55646 82.0725 5.04989 81.4222C4.51603 80.7237 4.147 79.9136 3.97041 79.0524C3.79383 78.1912 3.81425 77.3013 4.03015 76.4491C5.50548 70.5243 9.15868 65.6172 14.5895 62.2471C19.3796 59.2794 25.4704 57.6444 31.7421 57.6444Z" fill="#4D94CD"/>
</svg>
