<svg width="153" height="24" viewBox="0 0 153 24" fill="none" xmlns="http://www.w3.org/2000/svg">
<g clip-path="url(#clip0_1392_44770)">
<path d="M144.667 -0.203125C145.807 -0.203095 146.872 0.000466064 147.861 0.408203C148.872 0.815964 149.754 1.37726 150.507 2.09082C151.26 2.80446 151.852 3.64032 152.282 4.59863C152.712 5.53654 152.928 6.54633 152.928 7.62695C152.928 8.70729 152.712 9.7265 152.282 10.6846C151.899 11.5208 151.385 12.2669 150.745 12.9248C151.387 13.4907 151.901 14.1391 152.285 14.8721C152.716 15.6755 152.931 16.5401 152.931 17.4658C152.931 18.3917 152.716 19.2659 152.285 20.0869C151.855 20.8903 151.263 21.5977 150.51 22.209C149.757 22.8204 148.874 23.301 147.862 23.6504C146.872 23.9998 145.807 24.1738 144.666 24.1738H129.202C128.191 24.1738 127.244 24.0166 126.361 23.7021C125.479 23.3878 124.704 22.9692 124.037 22.4453C123.392 21.9038 122.875 21.2747 122.487 20.5586C122.1 19.8424 121.906 19.073 121.906 18.252V5.29004C121.906 4.79339 122.309 4.39062 122.806 4.39062H125.817C126.314 4.39071 126.717 4.79344 126.717 5.29004V18.252C126.717 18.8109 126.953 19.2916 127.427 19.6934C127.922 20.0776 128.514 20.2695 129.202 20.2695H144.666C145.139 20.2695 145.58 20.2002 145.989 20.0605C146.42 19.9034 146.786 19.7024 147.087 19.458C147.41 19.196 147.658 18.8983 147.83 18.5664C148.024 18.2171 148.12 17.85 148.12 17.4658C148.12 17.0816 148.024 16.7145 147.83 16.3652C147.658 16.016 147.41 15.7191 147.087 15.4746C146.786 15.2127 146.42 15.0118 145.989 14.8721C145.58 14.7149 145.139 14.6357 144.666 14.6357H130.618C130.122 14.6357 129.719 14.2338 129.719 13.7373V11.6572C129.719 11.1606 130.122 10.7578 130.618 10.7578H144.666C144.755 10.7578 144.843 10.7606 144.931 10.7627C144.973 10.7351 145.024 10.7197 145.082 10.7236C145.775 10.7711 146.458 10.5314 146.969 10.0605L147.087 9.95117C147.41 9.64534 147.657 9.29852 147.829 8.91113C148.023 8.50348 148.119 8.07536 148.119 7.62695C148.119 7.17838 148.023 6.74959 147.829 6.3418C147.657 5.93405 147.41 5.58719 147.087 5.30176C146.786 4.99598 146.419 4.76173 145.989 4.59863C145.581 4.41528 145.14 4.32327 144.667 4.32324H130.626C130.129 4.32324 129.727 3.92047 129.727 3.42383V0.696289C129.727 0.199643 130.129 -0.203125 130.626 -0.203125H144.667Z" fill="#4D5A68"/>
<path d="M64.3249 24.1723C63.1845 24.1723 62.1087 23.9571 61.0974 23.5268C60.1076 23.0965 59.2362 22.5048 58.4831 21.7517C57.73 20.9986 57.1383 20.1272 56.708 19.1374C56.2777 18.1261 56.0625 17.0503 56.0625 15.9099V14.3885C56.0625 13.8919 56.4651 13.4893 56.9618 13.4893H59.9722C60.4689 13.4893 60.8715 13.8919 60.8715 14.3885V15.9099C60.8715 16.3833 60.9575 16.8351 61.1297 17.2655C61.3233 17.6743 61.5708 18.0401 61.872 18.3628C62.1948 18.664 62.5605 18.9115 62.9694 19.1051C63.3997 19.2773 63.8515 19.3633 64.3249 19.3633H74.9111C75.9224 19.3633 76.8691 19.1697 77.7513 18.7824C78.655 18.3951 79.4404 17.8679 80.1074 17.2009C80.7744 16.5339 81.3015 15.7593 81.6888 14.8771C82.0761 13.9734 82.2698 13.0159 82.2698 12.0046V5.51292C82.2698 5.01627 81.8672 4.61366 81.3705 4.61366H73.9707C73.474 4.61366 73.0714 4.21105 73.0714 3.7144V0.703944C73.0714 0.207298 73.474 -0.195312 73.9707 -0.195312H83.6899C84.1633 -0.195312 84.6044 -0.0984877 85.0132 0.0951622C85.422 0.267296 85.777 0.503979 86.0782 0.805212C86.3795 1.10645 86.6162 1.46147 86.7883 1.87029C86.9819 2.2791 87.0788 2.72019 87.0788 3.19356V12.0046C87.0788 13.6829 86.756 15.2644 86.1105 16.7491C85.465 18.2122 84.5936 19.4924 83.4962 20.5898C82.3989 21.6871 81.1079 22.5585 79.6232 23.2041C78.1601 23.8495 76.5894 24.1723 74.9111 24.1723H64.3249Z" fill="#4D5A68"/>
<path d="M26.2073 13.3235C26.2073 12.8268 25.8047 12.4242 25.308 12.4242H5.70823C5.21159 12.4242 4.80897 12.8268 4.80897 13.3235V23.273C4.80897 23.7697 4.40636 24.1723 3.90972 24.1723H0.899257C0.402611 24.1723 0 23.7697 0 23.273V0.703945C0 0.207299 0.402611 -0.195312 0.899257 -0.195312H3.90972C4.40636 -0.195312 4.80897 0.207299 4.80897 0.703945V6.74825C4.80897 7.2449 5.21159 7.64751 5.70823 7.64751H25.308C25.8047 7.64751 26.2073 7.2449 26.2073 6.74825V0.703945C26.2073 0.207299 26.6099 -0.195312 27.1066 -0.195312H30.117C30.6137 -0.195312 31.0163 0.207299 31.0163 0.703945V23.273C31.0163 23.7697 30.6137 24.1723 30.117 24.1723H27.1066C26.6099 24.1723 26.2073 23.7697 26.2073 23.273V13.3235Z" fill="#4D5A68"/>
<path d="M33.6504 4.64746C36.4303 5.6682 38.414 8.33782 38.4141 11.4717V17.3203C38.414 20.4542 36.4303 23.1238 33.6504 24.1445V4.64746Z" fill="#2688FA"/>
<path d="M35.4798 3.82054C37.2041 5.1005 38.1221 6.25245 38.4006 6.76484V0.752758C38.4006 0.267986 38.0076 -0.125 37.5228 -0.125H34.1085C33.8372 -0.125 33.6172 -0.222817 33.6172 0.0485448C33.6172 1.42911 34.3713 2.99766 35.4798 3.82054Z" fill="#4D5A68"/>
<path d="M111.275 -0.242188C116.067 -0.242188 119.952 3.64254 119.952 8.43457V12.4238C119.952 15.6016 118.243 18.3781 115.694 19.8896V5.76953C115.694 4.80518 114.913 4.02344 113.948 4.02344H93.3066C94.8171 1.47054 97.5971 -0.242188 100.778 -0.242188H111.275Z" fill="#2688FA"/>
<path d="M97.7793 24.1484C92.9873 24.1484 89.1025 20.2637 89.1025 15.4717V11.4824C89.1026 8.31421 90.8012 5.54384 93.3369 4.0293V18.1445C93.337 19.1089 94.1186 19.8906 95.083 19.8906H115.743C114.232 22.4391 111.454 24.1484 108.276 24.1484H97.7793Z" fill="#2688FA"/>
<path d="M92.4922 7.11719L95.6252 10.5338C96.4769 11.4624 97.6791 11.9912 98.9391 11.9912H109.874C111.134 11.9912 112.336 11.4624 113.187 10.5338L116.321 7.11719" stroke="#2688FA" stroke-width="1.58869" stroke-linecap="round"/>
</g>
<defs>
<clipPath id="clip0_1392_44770">
<rect width="153" height="23.9932" fill="white"/>
</clipPath>
</defs>
</svg>
