<svg width="215" height="75" viewBox="0 0 215 75" fill="none" xmlns="http://www.w3.org/2000/svg">
<path d="M3.75263 3.12724V14.7519H0.668534V7.31397e-07H2.84681C6.81517 7.31397e-07 7.89352 1.27246 11.6246 6.42701C15.1401 11.2796 15.3989 11.6247 16.9949 11.6247H17.0164V7.31397e-07H20.1005V14.7519H17.9222C14.2774 14.7519 13.1775 13.5873 9.14442 8.30335C5.37017 3.36447 5.26233 3.12724 3.7742 3.12724H3.75263ZM41.9111 2.93313H30.2217C27.3317 2.93313 26.4691 4.03306 26.2534 5.99566H41.6523V8.75626H26.2534C26.4691 10.7189 27.3317 11.7972 30.2217 11.7972H41.9111V14.7519H30.2217C24.9378 14.7519 23.1046 12.2286 23.1046 7.37596C23.1046 2.52336 24.9378 7.31397e-07 30.2217 7.31397e-07H41.9111V2.93313ZM63.2456 14.7519H59.0184L54.554 10.0934C54.1443 9.68365 53.7129 9.27387 53.3247 8.75626C52.9581 9.27387 52.5051 9.70521 52.1169 10.0934L47.6525 14.7519H43.4254L50.9954 7.26813L43.6842 7.31397e-07H48.0192L52.1169 4.3997C52.5267 4.80947 52.9365 5.28395 53.3247 5.77999C53.7129 5.24081 54.1443 4.83104 54.554 4.3997L58.6518 7.31397e-07H62.9436L55.6539 7.26813L63.2456 14.7519ZM74.1528 14.7519H71.0687V2.78216H63.7359V7.31397e-07H81.4856V2.78216H74.1528V14.7519ZM89.9644 5.93096V8.62686H81.8983V5.93096H89.9644ZM108.456 6.70738H111.54V14.7519H99.8511C94.5671 14.7519 92.7555 12.207 92.7555 7.35439C92.7555 2.52336 94.5671 7.31397e-07 99.8511 7.31397e-07H111.368V2.99783H99.8511C96.3356 2.99783 95.9043 4.5291 95.9043 7.35439C95.9043 10.2013 96.3356 11.7325 99.8511 11.7325H108.456V6.70738ZM132.982 2.93313H121.292C118.402 2.93313 117.54 4.03306 117.324 5.99566H132.723V8.75626H117.324C117.54 10.7189 118.402 11.7972 121.292 11.7972H132.982V14.7519H121.292C116.008 14.7519 114.175 12.2286 114.175 7.37596C114.175 2.52336 116.008 7.31397e-07 121.292 7.31397e-07H132.982V2.93313ZM139.305 3.12724V14.7519H136.221V7.31397e-07H138.4C142.368 7.31397e-07 143.446 1.27246 147.177 6.42701C150.693 11.2796 150.952 11.6247 152.548 11.6247H152.569V7.31397e-07H155.653V14.7519H153.475C149.83 14.7519 148.73 13.5873 144.697 8.30335C140.923 3.36447 140.815 3.12724 139.327 3.12724H139.305ZM18.2242 33.0194H8.41114C4.89569 33.0194 3.5801 33.4723 3.5801 36.5133V36.9231H17.685V39.6621H3.5801V44.7519H0.495997V36.5133C0.495997 31.4666 3.12719 30 8.41114 30H18.2242V33.0194ZM39.1521 32.9331H27.4627C24.5727 32.9331 23.71 34.0331 23.4943 35.9957H38.8933V38.7563H23.4943C23.71 40.7189 24.5727 41.7972 27.4627 41.7972H39.1521V44.7519H27.4627C22.1787 44.7519 20.3455 42.2286 20.3455 37.376C20.3455 32.5234 22.1787 30 27.4627 30H39.1521V32.9331ZM56.1946 32.9116L62.255 44.7519H58.9337L57.0573 41.1071H46.1875L44.3112 44.7519H41.0114L47.0502 32.9116C47.9776 31.0784 49.0991 29.7843 51.6224 29.7843C54.1458 29.7843 55.2457 31.0784 56.1946 32.9116ZM55.6339 38.3681L53.1537 33.537C52.8302 32.9116 52.4204 32.5234 51.6224 32.5234C50.8244 32.5234 50.4147 32.9116 50.0911 33.537L47.5894 38.3681H55.6339ZM71.4359 44.7519H68.3518V32.7822H61.0189V30H78.7687V32.7822H71.4359V44.7519ZM80.8031 37.6348V30H83.8872V37.6348C83.8872 41.1718 85.1165 41.9698 89.9475 41.9698C94.7786 41.9698 95.9863 41.1718 95.9863 37.6348V30H99.0704V37.6348C99.0704 42.9619 96.5687 44.9676 89.9475 44.9676C83.3264 44.9676 80.8031 42.9619 80.8031 37.6348ZM102.523 44.7519V30H115.334C118.957 30 121.2 31.6391 121.2 34.5938C121.2 36.6642 120.1 37.9367 118.18 38.4975C120.057 39.1013 120.876 40.3091 120.876 41.8404V44.7519H117.684V41.7757C117.684 40.9561 117.231 39.8993 115.269 39.8993H105.607V44.7519H102.523ZM105.607 37.1603H115.571C117.469 37.1603 118.051 35.9094 118.051 34.9389C118.051 33.9684 117.469 32.7175 115.571 32.7175H105.607V37.1603ZM142.396 32.9331H130.707C127.817 32.9331 126.954 34.0331 126.739 35.9957H142.137V38.7563H126.739C126.954 40.7189 127.817 41.7972 130.707 41.7972H142.396V44.7519H130.707C125.423 44.7519 123.59 42.2286 123.59 37.376C123.59 32.5234 125.423 30 130.707 30H142.396V32.9331ZM145.01 41.9913H158.123C159.935 41.9913 160.517 41.4306 160.517 40.611C160.517 39.6189 159.633 39.1229 157.519 38.9504L150.381 38.3896C147.059 38.1308 145.075 36.9446 145.075 34.2272C145.075 31.0999 147.706 30 150.747 30H162.739V32.7606H150.467C149.022 32.7606 148.202 33.1488 148.202 34.1409C148.202 34.9604 148.763 35.3918 151.179 35.5859L157.972 36.1251C161.445 36.4054 163.688 37.5054 163.688 40.4816C163.688 42.9834 162.092 44.7519 157.929 44.7519H145.01V41.9913ZM18.7849 60V62.9978H7.11711C3.5801 62.9978 3.14875 64.5507 3.14875 67.376C3.14875 70.2013 3.5801 71.7325 7.11711 71.7325H18.7849V74.7519H7.11711C1.81159 74.7519 -4.74361e-05 72.2286 -4.74361e-05 67.376C-4.74361e-05 62.5234 1.81159 60 7.11711 60H18.7849ZM31.0332 59.7843C38.0641 59.7843 41.3854 61.6607 41.3854 67.376C41.3854 73.0913 38.0641 74.9676 31.0332 74.9676C24.0023 74.9676 20.681 73.0913 20.681 67.376C20.681 61.6607 24.0023 59.7843 31.0332 59.7843ZM31.0332 72.056C35.8642 72.056 38.2366 71.4953 38.2366 67.376C38.2366 63.2566 35.8642 62.6959 31.0332 62.6959C26.2022 62.6959 23.8298 63.2566 23.8298 67.376C23.8298 71.4953 26.2022 72.056 31.0332 72.056ZM54.337 71.711L47.3277 63.2566V74.7519H44.3083V60H47.3061C48.4492 60 48.9452 60.5823 49.3981 61.1431L55.5232 68.67L61.6483 61.1431C62.1012 60.5823 62.5972 60 63.7403 60H66.7381V74.7519H63.7187V63.2566L56.7094 71.711H54.337ZM70.4037 60H73.4878V74.7519H70.4037V60ZM80.2486 63.1272V74.7519H77.1645V60H79.3428C83.3111 60 84.3895 61.2725 88.1206 66.427C91.636 71.2796 91.8948 71.6247 93.4908 71.6247H93.5124V60H96.5965V74.7519H94.4182C90.7733 74.7519 89.6734 73.5873 85.6404 68.3033C81.8661 63.3645 81.7583 63.1272 80.2701 63.1272H80.2486ZM115.301 66.7074H118.386V74.7519H106.696C101.412 74.7519 99.6005 72.207 99.6005 67.3544C99.6005 62.5234 101.412 60 106.696 60H118.213V62.9978H106.696C103.181 62.9978 102.749 64.5291 102.749 67.3544C102.749 70.2013 103.181 71.7325 106.696 71.7325H115.301V66.7074ZM127.529 71.9913H140.642C142.454 71.9913 143.036 71.4306 143.036 70.611C143.036 69.6189 142.152 69.1229 140.038 68.9504L132.9 68.3896C129.578 68.1308 127.594 66.9446 127.594 64.2272C127.594 61.0999 130.225 60 133.266 60H145.257V62.7606H132.986C131.541 62.7606 130.721 63.1488 130.721 64.1409C130.721 64.9604 131.282 65.3918 133.697 65.5859L140.491 66.1251C143.963 66.4054 146.206 67.5054 146.206 70.4816C146.206 72.9834 144.61 74.7519 140.448 74.7519H127.529V71.9913ZM158.562 59.7843C165.592 59.7843 168.914 61.6607 168.914 67.376C168.914 73.0913 165.592 74.9676 158.562 74.9676C151.531 74.9676 148.209 73.0913 148.209 67.376C148.209 61.6607 151.531 59.7843 158.562 59.7843ZM158.562 72.056C163.393 72.056 165.765 71.4953 165.765 67.376C165.765 63.2566 163.393 62.6959 158.562 62.6959C153.731 62.6959 151.358 63.2566 151.358 67.376C151.358 71.4953 153.731 72.056 158.562 72.056ZM181.456 59.7843C188.486 59.7843 191.808 61.6607 191.808 67.376C191.808 73.0913 188.486 74.9676 181.456 74.9676C174.425 74.9676 171.103 73.0913 171.103 67.376C171.103 61.6607 174.425 59.7843 181.456 59.7843ZM181.456 72.056C186.287 72.056 188.659 71.4953 188.659 67.376C188.659 63.2566 186.287 62.6959 181.456 62.6959C176.625 62.6959 174.252 63.2566 174.252 67.376C174.252 71.4953 176.625 72.056 181.456 72.056ZM197.815 63.1272V74.7519H194.731V60H196.909C200.877 60 201.956 61.2725 205.687 66.427C209.202 71.2796 209.461 71.6247 211.057 71.6247H211.079V60H214.163V74.7519H211.984C208.34 74.7519 207.24 73.5873 203.207 68.3033C199.432 63.3645 199.324 63.1272 197.836 63.1272H197.815Z" fill="white"/>
</svg>
