<svg width="24" height="24" viewBox="0 0 24 24" fill="none" xmlns="http://www.w3.org/2000/svg">
<path d="M11.7228 2.83854C8.4943 2.83854 5.87049 5.46234 5.87049 8.69088V11.5098C5.87049 12.1048 5.61689 13.0119 5.31452 13.5191L4.19282 15.3821C3.5003 16.533 3.97824 17.8108 5.24624 18.24C9.45018 19.6445 13.9857 19.6445 18.1897 18.24C19.3699 17.8498 19.8869 16.455 19.2431 15.3821L18.1214 13.5191C17.8288 13.0119 17.5752 12.1048 17.5752 11.5098V8.69088C17.5752 5.47209 14.9416 2.83854 11.7228 2.83854Z" stroke="#4D5A68" stroke-width="1.46309" stroke-miterlimit="10" stroke-linecap="round"/>
<path d="M13.5305 3.12072C13.2281 3.03293 12.916 2.96465 12.5941 2.92564C11.6577 2.80859 10.7603 2.87687 9.92151 3.12072C10.2044 2.39893 10.9067 1.89172 11.726 1.89172C12.5453 1.89172 13.2476 2.39893 13.5305 3.12072Z" stroke="#4D5A68" stroke-width="1.46309" stroke-miterlimit="10" stroke-linecap="round" stroke-linejoin="round"/>
<path d="M14.65 18.5915C14.65 20.2009 13.3332 21.5177 11.7238 21.5177C10.924 21.5177 10.1827 21.186 9.65595 20.6593C9.12924 20.1326 8.79761 19.3913 8.79761 18.5915" stroke="#4D5A68" stroke-width="1.46309" stroke-miterlimit="10"/>
</svg>
