<svg width="19" height="19" viewBox="0 0 19 19" fill="none" xmlns="http://www.w3.org/2000/svg">
<path d="M6.23339 15.2091H12.1109C12.7592 15.2091 13.3809 14.9515 13.8393 14.4931C14.2977 14.0347 14.5553 13.413 14.5553 12.7647V8.90271C14.5555 8.25451 14.2983 7.63277 13.8401 7.17422L9.6715 3.0049C9.44451 2.77793 9.17503 2.59789 8.87846 2.47507C8.58188 2.35224 8.26402 2.28904 7.94302 2.28906H6.23339C5.58511 2.28906 4.96339 2.54659 4.50499 3.00499C4.04659 3.46339 3.78906 4.08511 3.78906 4.73339V12.7647C3.78906 13.413 4.04659 14.0347 4.50499 14.4931C4.96339 14.9515 5.58511 15.2091 6.23339 15.2091Z" stroke="white" stroke-width="1.14" stroke-linecap="round" stroke-linejoin="round"/>
<path d="M8.96094 2.54688V6.4997C8.96094 6.87014 9.1081 7.22541 9.37004 7.48735C9.63198 7.7493 9.98725 7.89645 10.3577 7.89645H14.3119" stroke="white" stroke-width="1.14" stroke-linecap="round" stroke-linejoin="round"/>
</svg>
