<svg width="16" height="16" viewBox="0 0 16 16" fill="none" xmlns="http://www.w3.org/2000/svg">
<g clip-path="url(#clip0_1392_45017)">
<mask id="mask0_1392_45017" style="mask-type:luminance" maskUnits="userSpaceOnUse" x="0" y="0" width="16" height="16">
<path d="M0 0H16V16H0V0Z" fill="white"/>
</mask>
<g mask="url(#mask0_1392_45017)">
<path d="M8.66146 10.6667H7.32812C6.96146 10.6667 6.66146 10.3667 6.66146 10H2.00146V12.6667C2.00146 13.4 2.60146 14 3.33479 14H12.6615C13.3948 14 13.9948 13.4 13.9948 12.6667V10H9.32812C9.32812 10.3667 9.02812 10.6667 8.66146 10.6667ZM13.3281 4.66667H10.6615C10.6615 3.19333 9.46812 2 7.99479 2C6.52146 2 5.32812 3.19333 5.32812 4.66667H2.66146C1.92812 4.66667 1.32812 5.26667 1.32812 6V8C1.32812 8.74 1.92146 9.33333 2.66146 9.33333H6.66146V8.66667C6.66146 8.3 6.96146 8 7.32812 8H8.66146C9.02812 8 9.32812 8.3 9.32812 8.66667V9.33333H13.3281C14.0615 9.33333 14.6615 8.73333 14.6615 8V6C14.6615 5.26667 14.0615 4.66667 13.3281 4.66667ZM6.66146 4.66667C6.66146 3.93333 7.26146 3.33333 7.99479 3.33333C8.72812 3.33333 9.32812 3.93333 9.32812 4.66667H6.65479H6.66146Z" fill="#2C79C2"/>
</g>
</g>
<defs>
<clipPath id="clip0_1392_45017">
<rect width="16" height="16" fill="white"/>
</clipPath>
</defs>
</svg>
