<svg width="21" height="21" viewBox="0 0 21 21" fill="none" xmlns="http://www.w3.org/2000/svg">
<g clip-path="url(#clip0_1392_44842)">
<path d="M14.8477 0.150391H6.15234C2.83745 0.150391 0.150391 2.83745 0.150391 6.15234V14.8477C0.150391 18.1625 2.83745 20.8496 6.15234 20.8496H14.8477C18.1625 20.8496 20.8496 18.1625 20.8496 14.8477V6.15234C20.8496 2.83745 18.1625 0.150391 14.8477 0.150391ZM14.8477 1.90039C17.1921 1.90039 19.0996 3.8079 19.0996 6.15234V14.8477C19.0996 17.1921 17.1921 19.0996 14.8477 19.0996H6.15234C3.8079 19.0996 1.90039 17.1921 1.90039 14.8477V6.15234C1.90039 3.8079 3.8079 1.90039 6.15234 1.90039H14.8477ZM8.69824 12.9922H5.09473C4.68005 12.9922 4.34375 13.3285 4.34375 13.7432C4.344 14.1576 4.68021 14.4932 5.09473 14.4932H8.69824C9.11274 14.4931 9.44897 14.1576 9.44922 13.7432C9.44922 13.3285 9.11289 12.9922 8.69824 12.9922ZM12.3018 9.74902H5.09473C4.68016 9.74915 4.34473 10.0854 4.34473 10.5C4.34495 10.9144 4.68029 11.2499 5.09473 11.25H12.3018C12.7163 11.25 13.0525 10.9145 13.0527 10.5C13.0527 10.0853 12.7164 9.74902 12.3018 9.74902ZM15.9053 6.50586H5.09473C4.68007 6.50586 4.34378 6.84219 4.34375 7.25684C4.34375 7.67151 4.68005 8.00781 5.09473 8.00781H15.9053C16.32 8.00781 16.6562 7.67151 16.6562 7.25684C16.6562 6.84219 16.3199 6.50586 15.9053 6.50586Z" fill="white" stroke="#4D5A68" stroke-width="0.3"/>
</g>
<defs>
<clipPath id="clip0_1392_44842">
<rect width="21" height="21" fill="white" transform="matrix(-1 0 0 1 21 0)"/>
</clipPath>
</defs>
</svg>
