<svg width="16" height="16" viewBox="0 0 16 16" fill="none" xmlns="http://www.w3.org/2000/svg">
<path d="M6.75115 14.5302C7.15515 14.8636 7.57648 15.1682 8.00781 15.4656C8.44008 15.1722 8.85936 14.8601 9.26448 14.5302C9.93981 13.9757 10.5754 13.3745 11.1665 12.7309C12.5291 11.2409 14.0078 9.08092 14.0078 6.65625C14.0078 5.86832 13.8526 5.0881 13.5511 4.36015C13.2496 3.6322 12.8076 2.97076 12.2505 2.41361C11.6933 1.85646 11.0319 1.4145 10.3039 1.11297C9.57596 0.811445 8.79574 0.65625 8.00781 0.65625C7.21988 0.65625 6.43967 0.811445 5.71171 1.11297C4.98376 1.4145 4.32232 1.85646 3.76517 2.41361C3.20802 2.97076 2.76606 3.6322 2.46454 4.36015C2.16301 5.0881 2.00781 5.86832 2.00781 6.65625C2.00781 9.08092 3.48648 11.2402 4.84915 12.7309C5.44023 13.3747 6.07579 13.9755 6.75115 14.5302ZM8.00781 8.82292C7.43318 8.82292 6.88208 8.59464 6.47575 8.18831C6.06942 7.78198 5.84115 7.23088 5.84115 6.65625C5.84115 6.08161 6.06942 5.53051 6.47575 5.12418C6.88208 4.71786 7.43318 4.48958 8.00781 4.48958C8.58245 4.48958 9.13355 4.71786 9.53988 5.12418C9.94621 5.53051 10.1745 6.08161 10.1745 6.65625C10.1745 7.23088 9.94621 7.78198 9.53988 8.18831C9.13355 8.59464 8.58245 8.82292 8.00781 8.82292Z" fill="#D37780"/>
</svg>
